Coordinates
version=1
nRows=5
nColumns=63
inDegrees=yes

Units are S.I. units (second, meters, Newtons, ...)
If the header above contains a line with 'inDegrees', this indicates whether rotational values are in degrees (yes) or radians (no).

endheader
time	pelvis_tilt	pelvis_list	pelvis_rotation	pelvis_tx	pelvis_ty	pelvis_tz	hip_flexion_r	hip_adduction_r	hip_rotation_r	knee_angle_r	knee_angle_r_beta	ankle_angle_r	subtalar_angle_r	mtp_angle_r	hip_flexion_l	hip_adduction_l	hip_rotation_l	knee_angle_l	knee_angle_l_beta	ankle_angle_l	subtalar_angle_l	mtp_angle_l	L5_S1_Flex_Ext	L5_S1_Lat_Bending	L5_S1_axial_rotation	L4_L5_Flex_Ext	L4_L5_Lat_Bending	L4_L5_axial_rotation	L3_L4_Flex_Ext	L3_L4_Lat_Bending	L3_L4_axial_rotation	L2_L3_Flex_Ext	L2_L3_Lat_Bending	L2_L3_axial_rotation	L1_L2_Flex_Ext	L1_L2_Lat_Bending	L1_L2_axial_rotation	L1_T12_Flex_Ext	L1_T12_Lat_Bending	L1_T12_axial_rotation	Abs_r3	Abs_r2	Abs_r1	Abs_t1	Abs_t2	neck_flexion	neck_bending	neck_rotation	arm_flex_r	arm_add_r	arm_rot_r	elbow_flex_r	pro_sup_r	wrist_flex_r	wrist_dev_r	arm_flex_l	arm_add_l	arm_rot_l	elbow_flex_l	pro_sup_l	wrist_flex_l	wrist_dev_l
      0.03333333	      4.93825837	     -1.79360652	    170.86207622	      2.70939885	      0.89362518	      0.61083970	      8.77389540	      1.13897953	     11.92329560	     12.02268487	      0.20983544	     14.49528688	    -18.38266553	      0.00000000	      7.18761935	      0.29891593	     -2.91673395	     15.44600929	      0.26958372	     15.24255128	    -18.65809486	      0.00000000	     -0.00602137	     -0.37560890	     -0.20556595	     -0.01118229	     -0.49955984	     -0.21841382	     -0.00989251	     -0.91325548	     -0.21841382	     -0.00688182	     -0.91325548	     -0.17987021	     -0.00559144	     -0.76594167	     -0.16702233	     -0.00344061	     -0.58181819	     -0.15417446	     -0.04301005	     -4.24896300	     -1.14329614	      0.00000000	      0.00000000	     -0.00000000	      0.00000000	     -0.00000000	     -8.21709028	     -2.37287055	      3.34153334	     24.37490441	     29.92545986	      0.00000000	      5.95907316	    -15.55848768	      4.83434899	    -45.10822313	     31.44319511	     34.67726694	      0.00000000	      5.95907316
      0.06666667	      4.53436921	     -2.08008062	    172.34437208	      2.70761610	      0.89374142	      0.61219083	      8.37245092	      0.79489112	     10.06964649	     12.55668549	      0.21915550	     15.48473829	    -18.24342004	      0.00000000	      6.98078425	      1.26025650	     -1.37128309	     15.04488123	      0.26258271	     15.97080319	    -18.60022168	      0.00000000	     -0.00584533	     -0.40042344	     -0.28473490	     -0.01085537	     -0.53256317	     -0.30253083	     -0.00960330	     -0.97358955	     -0.30253083	     -0.00668063	     -0.97358955	     -0.24914304	     -0.00542798	     -0.81654347	     -0.23134711	     -0.00334002	     -0.62025590	     -0.21355118	     -0.04175262	     -4.52967001	     -1.58361010	      0.00000000	      0.00000000	     -0.00000000	      0.00000000	     -0.00000000	     -5.37685626	     -6.57607358	     26.87203841	     20.58809958	     37.30524878	      0.00000000	      5.65175033	    -15.75647955	      3.90163204	    -38.62984598	     28.70139752	     36.38564106	      0.00000000	      5.65175033
      0.10000000	      4.25523604	     -2.18528394	    173.51471681	      2.70589292	      0.89375159	      0.61372689	      7.94194235	      0.63169598	      8.67414752	     12.79485559	      0.22331236	     16.25118595	    -18.09731499	      0.00000000	      6.83672833	      1.92068903	     -0.25780175	     14.78915569	      0.25811946	     16.63736219	    -18.55091382	      0.00000000	     -0.00559731	     -0.40347484	     -0.38225733	     -0.01039476	     -0.53662154	     -0.40614841	     -0.00919582	     -0.98100873	     -0.40614841	     -0.00639717	     -0.98100873	     -0.33447516	     -0.00519766	     -0.82276590	     -0.31058408	     -0.00319830	     -0.62498253	     -0.28669300	     -0.03998102	     -4.56418810	     -2.12600058	      0.00000000	      0.00000000	     -0.00000000	      0.00000000	     -0.00000000	     -1.91592744	     -9.99085027	     52.28417843	     19.41090526	     45.90543163	      0.00000000	      5.40423158	    -15.98019199	      3.16233836	    -32.71957574	     26.70757919	     38.28808878	      0.00000000	      5.40423158
      0.13333333	      4.12982683	     -2.10666954	    174.27971134	      2.70426436	      0.89369512	      0.61517271	      7.53461274	      0.64840533	      7.78617225	     12.71009860	      0.22183307	     16.60920919	    -17.89753233	      0.00000000	      6.77873347	      2.22839638	      0.53643985	     14.71821313	      0.25688128	     17.17128723	    -18.52430702	      0.00000000	     -0.00706981	     -0.38835448	     -0.48350127	     -0.01312934	     -0.51651146	     -0.51372010	     -0.01161499	     -0.94424508	     -0.51372010	     -0.00808008	     -0.94424508	     -0.42306361	     -0.00656502	     -0.79193245	     -0.39284478	     -0.00403969	     -0.60156109	     -0.36262595	     -0.05049893	     -4.39314352	     -2.68908903	      0.00000000	      0.00000000	     -0.00000000	      0.00000000	     -0.00000000	      0.13147816	    -11.79173738	     65.50836397	     20.32367672	     50.05315999	      0.00000000	      5.31652604	    -16.31888916	      2.44440037	    -27.05444142	     25.54023147	     39.94993159	      0.00000000	      5.31652604
      0.16666667	      4.06920701	     -2.04530376	    174.34261824	      2.70317131	      0.89362263	      0.61584194	      7.32260753	      0.73137834	      7.80167507	     12.70556483	      0.22175394	     16.65034127	    -17.90331861	      0.00000000	      6.58766415	      2.33724591	      0.61654748	     14.46838033	      0.25252087	     17.39108374	    -18.29879781	      0.00000000	     -0.00574668	     -0.38132441	     -0.50421238	     -0.01067216	     -0.50716147	     -0.53572565	     -0.00944122	     -0.92715217	     -0.53572565	     -0.00656788	     -0.92715217	     -0.44118583	     -0.00533637	     -0.77759674	     -0.40967256	     -0.00328365	     -0.59067151	     -0.37815929	     -0.04104796	     -4.31361800	     -2.80427800	      0.00000000	      0.00000000	     -0.00000000	      0.00000000	     -0.00000000	      1.89816274	    -12.62648351	     75.41750988	     20.83994911	     52.19948359	      0.00000000	      5.21137057	    -16.47801510	      2.75293861	    -27.20935230	     25.43470024	     40.38433391	      0.00000000	      5.21137057
